<?xml version="1.0" encoding="iso-8859-1"?>
<!-- Generator: Adobe Illustrator 19.0.0, SVG Export Plug-In . SVG Version: 6.00 Build 0)  -->
<svg xmlns="http://www.w3.org/2000/svg" xmlns:xlink="http://www.w3.org/1999/xlink" version="1.1" id="Layer_1" x="0px" y="0px" viewBox="0 0 512 512" style="enable-background:new 0 0 512 512;" xml:space="preserve">
<circle style="fill:#00C3FF;" cx="256" cy="256" r="168.086"/>
<path style="fill:#00AAF0;" d="M326.773,353.313c-92.831,0-168.086-75.255-168.086-168.086c0-28.185,7.021-54.701,19.281-78.032  C124.457,135.315,87.914,191.354,87.914,256c0,92.831,75.255,168.086,168.086,168.086c64.646,0,120.685-36.543,148.805-90.055  C381.474,346.292,354.959,353.313,326.773,353.313z"/>
<g>
	<circle style="fill:#00C3FF;" cx="256" cy="25.987" r="17.693"/>
	<circle style="fill:#00C3FF;" cx="256" cy="486.013" r="17.693"/>
	<circle style="fill:#00C3FF;" cx="486.013" cy="256" r="17.693"/>
	<circle style="fill:#00C3FF;" cx="25.987" cy="256" r="17.693"/>
</g>
<path d="M449.585,147.821c1.521,2.715,4.339,4.243,7.244,4.243c1.371,0,2.763-0.342,4.045-1.059  c3.995-2.238,5.421-7.292,3.184-11.288c-3.045-5.437-6.346-10.823-9.812-16.006c-2.544-3.808-7.698-4.831-11.504-2.285  c-3.807,2.546-4.83,7.697-2.284,11.504C443.681,137.751,446.751,142.762,449.585,147.821z"/>
<path d="M364.159,62.404c5.065,2.835,10.075,5.907,14.896,9.13c1.415,0.947,3.018,1.401,4.602,1.401  c2.676,0,5.302-1.293,6.901-3.685c2.547-3.807,1.524-8.958-2.284-11.505c-5.181-3.465-10.568-6.767-16.011-9.814  c-3.996-2.238-9.051-0.812-11.288,3.185C358.738,55.112,360.162,60.166,364.159,62.404z"/>
<path d="M315.819,42.442c5.587,1.561,11.18,3.367,16.625,5.368c0.944,0.346,1.91,0.511,2.859,0.511c3.379,0,6.554-2.08,7.786-5.436  c1.579-4.299-0.626-9.066-4.925-10.645c-5.856-2.151-11.871-4.093-17.88-5.772c-4.412-1.236-8.987,1.344-10.22,5.755  C308.83,36.633,311.407,41.209,315.819,42.442z"/>
<path d="M418.831,105.515c1.636,1.768,3.859,2.663,6.092,2.663c2.014,0,4.033-0.729,5.629-2.204  c3.363-3.111,3.569-8.358,0.459-11.721c-4.233-4.578-8.698-9.043-13.274-13.273c-3.365-3.111-8.612-2.903-11.721,0.46  c-3.111,3.363-2.904,8.61,0.459,11.72C410.735,97.098,414.893,101.254,418.831,105.515z"/>
<path d="M464.177,179.518c2,5.441,3.805,11.03,5.368,16.612c1.025,3.664,4.355,6.061,7.983,6.061c0.74,0,1.493-0.1,2.238-0.309  c4.411-1.234,6.987-5.81,5.753-10.222c-1.68-6.002-3.62-12.013-5.771-17.864c-1.58-4.298-6.343-6.508-10.646-4.924  C464.802,170.453,462.597,175.219,464.177,179.518z"/>
<path d="M128.325,72.946c1.585,0,3.186-0.453,4.602-1.4c4.825-3.226,9.835-6.298,14.891-9.129c3.996-2.238,5.422-7.293,3.184-11.288  c-2.238-3.996-7.291-5.421-11.288-3.184c-5.435,3.043-10.819,6.345-16.006,9.812c-3.807,2.546-4.831,7.697-2.285,11.504  C123.023,71.653,125.649,72.946,128.325,72.946z"/>
<path d="M51.115,151.028c1.282,0.718,2.673,1.059,4.044,1.059c2.904,0,5.724-1.528,7.244-4.243  c2.833-5.059,5.905-10.071,9.131-14.898c2.546-3.807,1.522-8.958-2.286-11.504c-3.808-2.547-8.959-1.522-11.504,2.286  c-3.467,5.186-6.769,10.574-9.814,16.011C45.692,143.735,47.117,148.79,51.115,151.028z"/>
<path d="M87.065,108.189c2.232,0,4.458-0.896,6.092-2.664c3.937-4.259,8.094-8.415,12.355-12.357  c3.363-3.111,3.569-8.358,0.458-11.721c-3.111-3.363-8.357-3.569-11.721-0.458c-4.578,4.234-9.043,8.7-13.272,13.274  c-3.11,3.363-2.904,8.61,0.46,11.72C83.032,107.46,85.052,108.189,87.065,108.189z"/>
<path d="M32.221,201.937c0.748,0.209,1.497,0.309,2.237,0.309c3.627,0,6.959-2.399,7.983-6.063  c1.563-5.589,3.367-11.182,5.368-16.625c1.579-4.299-0.626-9.066-4.925-10.645c-4.295-1.579-9.064,0.625-10.645,4.925  c-2.15,5.853-4.093,11.869-5.772,17.878C25.233,196.128,27.809,200.705,32.221,201.937z"/>
<path d="M176.654,48.336c0.95,0,1.915-0.164,2.86-0.511c5.441-1.999,11.03-3.804,16.611-5.367c4.411-1.234,6.987-5.811,5.753-10.222  c-1.235-4.411-5.813-6.987-10.222-5.753c-6.002,1.68-12.013,3.622-17.863,5.771c-4.299,1.58-6.503,6.346-4.924,10.645  C170.101,46.257,173.276,48.336,176.654,48.336z"/>
<path d="M229.484,35.792c0.316,0,0.635-0.018,0.957-0.054c0.469-0.054,0.945-0.098,1.418-0.149  c3.828,9.589,13.203,16.385,24.141,16.385c10.939,0,20.313-6.796,24.141-16.386c0.471,0.051,0.945,0.095,1.414,0.148  c0.322,0.036,0.639,0.054,0.955,0.054c4.157,0,7.744-3.12,8.228-7.349c0.522-4.55-2.744-8.662-7.295-9.184  c-0.802-0.092-1.612-0.169-2.418-0.253C277.967,8.056,267.91,0,256,0c-11.91,0-21.967,8.056-25.026,19.004  c-0.809,0.084-1.622,0.163-2.425,0.254c-4.551,0.523-7.816,4.636-7.293,9.186C221.741,32.673,225.328,35.792,229.484,35.792z   M256,16.587c5.183,0,9.4,4.217,9.4,9.4s-4.217,9.4-9.4,9.4c-5.183,0-9.4-4.217-9.4-9.4S250.817,16.587,256,16.587z"/>
<path d="M93.167,406.484c-3.111-3.364-8.358-3.569-11.721-0.459c-3.364,3.111-3.569,8.358-0.459,11.721  c4.233,4.578,8.7,9.043,13.274,13.273c1.595,1.475,3.614,2.204,5.628,2.204c2.232,0,4.458-0.896,6.092-2.664  c3.11-3.363,2.904-8.61-0.46-11.72C101.265,414.901,97.107,410.745,93.167,406.484z"/>
<path d="M147.84,449.595c-5.059-2.833-10.071-5.905-14.898-9.131c-3.807-2.547-8.958-1.522-11.504,2.286  c-2.546,3.807-1.522,8.958,2.286,11.504c5.186,3.467,10.574,6.769,16.011,9.814c1.282,0.718,2.673,1.059,4.044,1.059  c2.904,0,5.724-1.528,7.244-4.243C153.263,456.888,151.836,451.833,147.84,449.595z"/>
<path d="M196.179,469.558c-5.583-1.56-11.177-3.366-16.624-5.368c-4.299-1.579-9.066,0.626-10.645,4.925  c-1.579,4.299,0.626,9.066,4.925,10.645c5.859,2.152,11.874,4.095,17.88,5.772c0.746,0.209,1.497,0.309,2.236,0.309  c3.628,0,6.959-2.399,7.983-6.063C203.168,475.366,200.591,470.79,196.179,469.558z"/>
<path d="M47.823,332.48c-1.999-5.441-3.805-11.03-5.367-16.612c-1.234-4.41-5.807-6.986-10.222-5.753  c-4.411,1.234-6.987,5.81-5.753,10.222c1.68,6.002,3.622,12.013,5.771,17.864c1.233,3.356,4.407,5.435,7.786,5.435  c0.95,0,1.915-0.164,2.86-0.511C47.198,341.546,49.402,336.78,47.823,332.48z"/>
<path d="M62.415,364.179c-2.238-3.996-7.291-5.42-11.288-3.184c-3.996,2.238-5.422,7.292-3.184,11.288  c3.043,5.435,6.345,10.819,9.812,16.006c1.599,2.392,4.225,3.686,6.903,3.686c1.585,0,3.186-0.453,4.602-1.4  c3.807-2.546,4.831-7.697,2.285-11.504C68.317,374.244,65.246,369.234,62.415,364.179z"/>
<path d="M28.442,290.74c4.55-0.522,7.816-4.633,7.295-9.185c-0.054-0.469-0.097-0.943-0.148-1.413  c9.589-3.828,16.385-13.203,16.385-24.141c0-10.939-6.796-20.313-16.386-24.141c0.051-0.471,0.095-0.945,0.148-1.413  c0.522-4.551-2.744-8.663-7.295-9.185c-4.563-0.522-8.663,2.744-9.185,7.295c-0.092,0.802-0.169,1.611-0.253,2.418  C8.056,234.033,0,244.09,0,256c0,11.91,8.056,21.967,19.004,25.026c0.084,0.807,0.161,1.617,0.253,2.418  c0.484,4.23,4.072,7.349,8.23,7.349C27.802,290.794,28.121,290.776,28.442,290.74z M25.987,246.6c5.183,0,9.4,4.217,9.4,9.4  c0,5.183-4.217,9.4-9.4,9.4s-9.4-4.217-9.4-9.4C16.587,250.817,20.804,246.6,25.987,246.6z"/>
<path d="M460.885,360.973c-3.998-2.238-9.051-0.814-11.289,3.184c-2.833,5.058-5.905,10.071-9.131,14.899  c-2.546,3.808-1.522,8.959,2.287,11.504c1.415,0.945,3.017,1.399,4.6,1.399c2.677,0,5.305-1.294,6.903-3.687  c3.468-5.187,6.769-10.575,9.813-16.01C466.307,368.265,464.882,363.211,460.885,360.973z"/>
<path d="M379.072,440.455c-4.827,3.227-9.837,6.298-14.891,9.129c-3.996,2.238-5.421,7.293-3.184,11.288  c1.521,2.715,4.339,4.242,7.244,4.242c1.371,0,2.763-0.342,4.045-1.059c5.432-3.042,10.816-6.343,16.004-9.812  c3.807-2.546,4.831-7.695,2.286-11.504C388.031,438.932,382.879,437.909,379.072,440.455z"/>
<path d="M418.841,406.475c-3.939,4.26-8.096,8.416-12.357,12.355c-3.363,3.11-3.57,8.357-0.459,11.72  c1.636,1.768,3.859,2.664,6.092,2.664c2.014,0,4.033-0.729,5.629-2.204c4.577-4.232,9.043-8.697,13.274-13.274  c3.111-3.363,2.904-8.61-0.459-11.72C427.196,402.905,421.949,403.112,418.841,406.475z"/>
<path d="M332.484,464.176c-5.438,1.999-11.028,3.804-16.611,5.367c-4.411,1.234-6.987,5.81-5.753,10.222  c1.025,3.664,4.355,6.061,7.983,6.061c0.74,0,1.493-0.1,2.238-0.309c6.006-1.681,12.015-3.622,17.864-5.771  c4.299-1.58,6.505-6.346,4.924-10.646C341.549,464.801,336.788,462.595,332.484,464.176z"/>
<path d="M479.779,310.063c-4.419-1.237-8.988,1.344-10.22,5.755c-1.564,5.591-3.369,11.184-5.368,16.626  c-1.58,4.299,0.625,9.066,4.925,10.645c0.944,0.346,1.91,0.511,2.859,0.511c3.379,0,6.553-2.08,7.786-5.436  c2.15-5.852,4.092-11.867,5.772-17.878C486.767,315.872,484.192,311.296,479.779,310.063z"/>
<path d="M281.557,476.263c-0.469,0.054-0.944,0.097-1.417,0.148c-3.827-9.589-13.201-16.385-24.14-16.385  c-10.939,0-20.313,6.796-24.141,16.386c-0.471-0.051-0.947-0.095-1.417-0.148c-4.559-0.525-8.663,2.745-9.185,7.295  c-0.522,4.55,2.744,8.663,7.295,9.185c0.802,0.092,1.613,0.17,2.421,0.254C234.033,503.944,244.09,512,256,512  c11.91,0,21.967-8.056,25.026-19.004c0.807-0.084,1.619-0.163,2.421-0.254c4.55-0.522,7.816-4.633,7.295-9.185  C290.22,479.006,286.103,475.739,281.557,476.263z M256,495.413c-5.183,0-9.4-4.217-9.4-9.4s4.217-9.4,9.4-9.4  c5.183,0,9.4,4.217,9.4,9.4S261.183,495.413,256,495.413z"/>
<path d="M512,256c0-11.91-8.056-21.967-19.004-25.026c-0.084-0.807-0.161-1.618-0.253-2.418c-0.522-4.551-4.635-7.815-9.185-7.295  c-4.551,0.522-7.816,4.633-7.295,9.184c0.053,0.468,0.097,0.944,0.148,1.414c-9.589,3.828-16.385,13.202-16.385,24.141  c0,10.939,6.796,20.313,16.386,24.141c-0.051,0.47-0.095,0.945-0.148,1.413c-0.522,4.551,2.744,8.663,7.295,9.185  c0.321,0.036,0.639,0.054,0.955,0.054c4.157,0,7.744-3.12,8.229-7.349c0.092-0.8,0.169-1.611,0.253-2.418  C503.944,277.967,512,267.91,512,256z M486.013,265.4c-5.183,0-9.4-4.217-9.4-9.4c0-5.183,4.217-9.4,9.4-9.4s9.4,4.217,9.4,9.4  C495.413,261.183,491.196,265.4,486.013,265.4z"/>
<path d="M256,450.073c4.581,0,8.294-3.713,8.294-8.294v-9.6c90.67-4.219,163.667-77.215,167.886-167.886h9.6  c4.581,0,8.294-3.713,8.294-8.294s-3.712-8.294-8.294-8.294h-9.6c-4.219-90.67-77.216-163.667-167.886-167.886v-9.6  c0-4.58-3.712-8.294-8.294-8.294c-4.58,0-8.294,3.713-8.294,8.294v9.6c-90.67,4.219-163.667,77.216-167.886,167.886h-9.6  c-4.58,0-8.294,3.713-8.294,8.294s3.713,8.294,8.294,8.294h9.6c4.219,90.67,77.216,163.667,167.886,167.886v9.6  C247.706,446.36,251.42,450.073,256,450.073z M264.294,415.085V352.76h62.313c-2.713,6.297-5.705,12.296-8.973,17.94  C302.843,396.247,284.151,411.705,264.294,415.085z M264.294,336.173v-71.879h80.605c-0.735,25.628-4.893,50.1-12.054,71.879  H264.294z M264.294,247.706v-71.879h68.552c7.16,21.779,11.318,46.251,12.054,71.879H264.294z M264.294,159.24V96.915  c19.857,3.379,38.549,18.838,53.339,44.385c3.268,5.644,6.26,11.642,8.973,17.94H264.294z M247.706,96.915v62.325h-62.313  c2.713-6.297,5.705-12.296,8.973-17.94C209.157,115.753,227.849,100.294,247.706,96.915z M247.706,175.827v71.879h-80.605  c0.735-25.628,4.893-50.1,12.054-71.879H247.706z M247.706,264.294v71.879h-68.552c-7.16-21.779-11.318-46.251-12.054-71.879  H247.706z M247.706,352.76v62.325c-19.857-3.379-38.549-18.838-53.34-44.385c-3.268-5.644-6.26-11.642-8.973-17.94H247.706z   M312.509,405.462c7.026-7.399,13.566-16.238,19.479-26.453c4.712-8.138,8.895-16.931,12.533-26.25h38.553  C365.079,376.335,340.688,394.773,312.509,405.462z M394.178,336.173h-43.947c6.696-22.111,10.566-46.512,11.257-71.879h54.09  C414.239,290.385,406.605,314.839,394.178,336.173z M361.49,247.706c-0.691-25.367-4.562-49.768-11.257-71.879h43.947  c12.426,21.334,20.06,45.788,21.4,71.879H361.49z M383.074,159.24h-38.553c-3.638-9.319-7.822-18.112-12.533-26.25  c-5.913-10.213-12.453-19.053-19.479-26.453C340.688,117.227,365.079,135.665,383.074,159.24z M199.49,106.538  c-7.026,7.399-13.566,16.238-19.479,26.451c-4.711,8.138-8.895,16.931-12.533,26.25h-38.553  C146.92,135.665,171.312,117.227,199.49,106.538z M117.822,175.827h43.947c-6.696,22.111-10.566,46.512-11.257,71.879H96.421  C97.761,221.615,105.395,197.161,117.822,175.827z M150.51,264.294c0.691,25.367,4.562,49.768,11.257,71.879h-43.947  c-12.426-21.334-20.06-45.788-21.4-71.879H150.51z M128.926,352.76h38.553c3.638,9.319,7.822,18.112,12.533,26.25  c5.913,10.213,12.452,19.053,19.479,26.451C171.312,394.773,146.92,376.335,128.926,352.76z"/>
<g>
</g>
<g>
</g>
<g>
</g>
<g>
</g>
<g>
</g>
<g>
</g>
<g>
</g>
<g>
</g>
<g>
</g>
<g>
</g>
<g>
</g>
<g>
</g>
<g>
</g>
<g>
</g>
<g>
</g>
</svg>
